# xmcd CD database file
#
# Track frame offsets:
#	150
#	12102
#	23375
#	32450
#	44372
#	54232
#	65485
#	75817
#	86770
#	95725
#	105210
#	114727
#	119515
#	127950
#	137852
#	147787
#	161080
#	172222
#	181230
#	190405
#	200225
#	211802
#	221715
#	233715
#
# Disc length: 3253 seconds
#
# Revision: 0
# Processed by: cddbd v1.5.1PL0 Copyright (c) Steve Scherf et al.
# Submitted via: CDex 1.51
#
DISCID=4a0cb318
DTITLE=Justin Tubb - 24 big ones
DYEAR=1900
DGENRE=Country
TTITLE0=looking back to see
TTITLE1=gotta go get my baby
TTITLE2=5 minutes of the latest blues
TTITLE3=achin' breakin' heart
TTITLE4=charlie's shoes
TTITLE5=my heart keeps getting in the way
TTITLE6=one for you, one for me
TTITLE7=3 days
TTITLE8=i'd know you anywhere
TTITLE9=how the other half lives
TTITLE10=you nearly lose your mind
TTITLE11=mountain dew
TTITLE12=if you don't want me
TTITLE13=how does it feel
TTITLE14=they painted a picture for me
TTITLE15=walking the floor over you
TTITLE16=that's alright
TTITLE17=i found my girl in the USA
TTITLE18=accidentally on purpose
TTITLE19=i've tried the shoe on
TTITLE20=one eyed red
TTITLE21=women
TTITLE22=misery loves company
TTITLE23=your side of the story
EXTD=
EXTT0=
EXTT1=
EXTT2=
EXTT3=
EXTT4=
EXTT5=
EXTT6=
EXTT7=
EXTT8=
EXTT9=
EXTT10=
EXTT11=
EXTT12=
EXTT13=
EXTT14=
EXTT15=
EXTT16=
EXTT17=
EXTT18=
EXTT19=
EXTT20=
EXTT21=
EXTT22=
EXTT23=
PLAYORDER=
